<mxfile host="Electron" agent="Mozilla/5.0 (Windows NT 10.0; Win64; x64) AppleWebKit/537.36 (KHTML, like Gecko) draw.io/28.0.6 Chrome/138.0.7204.100 Electron/37.2.3 Safari/537.36" version="28.0.6">
  <diagram name="Page-1" id="so6UOzKvtwiNQnVO_wBF">
    <mxGraphModel dx="772" dy="547" grid="1" gridSize="10" guides="1" tooltips="1" connect="1" arrows="1" fold="1" page="1" pageScale="1" pageWidth="1200" pageHeight="1920" math="0" shadow="0">
      <root>
        <mxCell id="0" />
        <mxCell id="1" parent="0" />
        <mxCell id="GoY-4vi9tE2PiTq7zHD_-113" value="" style="rounded=0;whiteSpace=wrap;html=1;strokeWidth=2;" vertex="1" parent="1">
          <mxGeometry x="16.6" y="50" width="1163.4" height="600" as="geometry" />
        </mxCell>
        <mxCell id="GoY-4vi9tE2PiTq7zHD_-1" value="" style="rounded=0;whiteSpace=wrap;html=1;dashed=1;labelBackgroundColor=#FFFFFF;" vertex="1" parent="1">
          <mxGeometry x="40" y="120" width="160" height="520" as="geometry" />
        </mxCell>
        <mxCell id="GoY-4vi9tE2PiTq7zHD_-112" value="" style="edgeStyle=orthogonalEdgeStyle;rounded=0;orthogonalLoop=1;jettySize=auto;html=1;" edge="1" parent="1" source="GoY-4vi9tE2PiTq7zHD_-111" target="GoY-4vi9tE2PiTq7zHD_-14">
          <mxGeometry relative="1" as="geometry" />
        </mxCell>
        <mxCell id="GoY-4vi9tE2PiTq7zHD_-2" value="Sources" style="rounded=0;whiteSpace=wrap;html=1;fontSize=24;fillColor=default;dashed=1;dashPattern=1 4;strokeColor=none;fontStyle=1" vertex="1" parent="1">
          <mxGeometry x="76.74" y="60" width="70" height="50" as="geometry" />
        </mxCell>
        <mxCell id="GoY-4vi9tE2PiTq7zHD_-5" value="" style="rounded=0;whiteSpace=wrap;html=1;dashed=1;" vertex="1" parent="1">
          <mxGeometry x="240" y="70" width="690" height="570" as="geometry" />
        </mxCell>
        <mxCell id="GoY-4vi9tE2PiTq7zHD_-6" value="&lt;b&gt;Data Warehouse&lt;/b&gt;" style="rounded=0;whiteSpace=wrap;html=1;fontSize=24;fillColor=default;dashed=1;dashPattern=1 4;strokeColor=none;" vertex="1" parent="1">
          <mxGeometry x="464.73" y="80" width="270" height="50" as="geometry" />
        </mxCell>
        <mxCell id="GoY-4vi9tE2PiTq7zHD_-9" value="" style="rounded=0;whiteSpace=wrap;html=1;dashed=1;" vertex="1" parent="1">
          <mxGeometry x="1000" y="120" width="160" height="520" as="geometry" />
        </mxCell>
        <mxCell id="GoY-4vi9tE2PiTq7zHD_-10" value="&lt;b&gt;Consume&amp;nbsp;&lt;/b&gt;" style="rounded=0;whiteSpace=wrap;html=1;fontSize=24;fillColor=default;dashed=1;dashPattern=1 4;strokeColor=none;" vertex="1" parent="1">
          <mxGeometry x="1045" y="68" width="70" height="50" as="geometry" />
        </mxCell>
        <mxCell id="GoY-4vi9tE2PiTq7zHD_-13" value="Bronze Layer" style="rounded=0;whiteSpace=wrap;html=1;fillColor=#ffcc99;strokeColor=#36393d;fontSize=20;" vertex="1" parent="1">
          <mxGeometry x="300" y="160" width="150" height="30" as="geometry" />
        </mxCell>
        <mxCell id="GoY-4vi9tE2PiTq7zHD_-14" value="" style="rounded=0;whiteSpace=wrap;html=1;fontSize=20;" vertex="1" parent="1">
          <mxGeometry x="300" y="200" width="150" height="420" as="geometry" />
        </mxCell>
        <mxCell id="GoY-4vi9tE2PiTq7zHD_-20" value="Silver Layer" style="rounded=0;whiteSpace=wrap;html=1;fillColor=#f5f5f5;gradientColor=#b3b3b3;strokeColor=#666666;fontSize=20;" vertex="1" parent="1">
          <mxGeometry x="525" y="160" width="150" height="30" as="geometry" />
        </mxCell>
        <mxCell id="GoY-4vi9tE2PiTq7zHD_-22" value="Gold Layer" style="rounded=0;whiteSpace=wrap;html=1;fillColor=#fff2cc;gradientColor=#ffd966;strokeColor=#d6b656;fontSize=20;" vertex="1" parent="1">
          <mxGeometry x="750" y="160" width="150" height="30" as="geometry" />
        </mxCell>
        <mxCell id="GoY-4vi9tE2PiTq7zHD_-23" value="" style="rounded=0;whiteSpace=wrap;html=1;fontSize=20;" vertex="1" parent="1">
          <mxGeometry x="525" y="205.47" width="150" height="414.53" as="geometry" />
        </mxCell>
        <mxCell id="GoY-4vi9tE2PiTq7zHD_-24" value="" style="rounded=0;whiteSpace=wrap;html=1;fontSize=20;" vertex="1" parent="1">
          <mxGeometry x="750" y="197.87" width="150" height="422.13" as="geometry" />
        </mxCell>
        <mxCell id="GoY-4vi9tE2PiTq7zHD_-30" value="&lt;font style=&quot;font-size: 16px;&quot;&gt;CRM&lt;/font&gt;" style="image;aspect=fixed;html=1;points=[];align=center;fontSize=12;image=img/lib/azure2/general/Folder_Blank.svg;labelBackgroundColor=default;" vertex="1" parent="1">
          <mxGeometry x="85" y="268.12" width="51.6" height="41.88" as="geometry" />
        </mxCell>
        <mxCell id="GoY-4vi9tE2PiTq7zHD_-32" value="" style="image;aspect=fixed;html=1;points=[];align=center;fontSize=12;image=img/lib/azure2/general/File.svg;labelBackgroundColor=default;" vertex="1" parent="1">
          <mxGeometry x="120" y="287.05" width="26.74" height="32.95" as="geometry" />
        </mxCell>
        <mxCell id="GoY-4vi9tE2PiTq7zHD_-40" value="&lt;font style=&quot;font-size: 16px;&quot;&gt;ERP&lt;/font&gt;" style="image;aspect=fixed;html=1;points=[];align=center;fontSize=12;image=img/lib/azure2/general/Folder_Blank.svg;labelBackgroundColor=default;" vertex="1" parent="1">
          <mxGeometry x="85" y="388.12" width="51.6" height="41.88" as="geometry" />
        </mxCell>
        <mxCell id="GoY-4vi9tE2PiTq7zHD_-41" value="" style="image;aspect=fixed;html=1;points=[];align=center;fontSize=12;image=img/lib/azure2/general/File.svg;labelBackgroundColor=default;" vertex="1" parent="1">
          <mxGeometry x="120" y="407.05" width="26.74" height="32.95" as="geometry" />
        </mxCell>
        <mxCell id="GoY-4vi9tE2PiTq7zHD_-52" value="" style="line;strokeWidth=1;html=1;labelBackgroundColor=default;" vertex="1" parent="1">
          <mxGeometry x="65" y="470" width="110" height="10" as="geometry" />
        </mxCell>
        <mxCell id="GoY-4vi9tE2PiTq7zHD_-53" value="&lt;div style=&quot;text-align: justify;&quot;&gt;&lt;font style=&quot;font-size: 11px;&quot;&gt;&lt;b style=&quot;color: light-dark(rgb(0, 0, 0), rgb(255, 255, 255));&quot;&gt;Object Type : &lt;/b&gt;&lt;span style=&quot;color: light-dark(rgb(0, 0, 0), rgb(255, 255, 255));&quot;&gt;CSV Files&lt;/span&gt;&lt;/font&gt;&lt;/div&gt;&lt;div style=&quot;text-align: justify;&quot;&gt;&lt;font style=&quot;font-size: 11px;&quot;&gt;&lt;span style=&quot;color: light-dark(rgb(0, 0, 0), rgb(255, 255, 255));&quot;&gt;&lt;br&gt;&lt;/span&gt;&lt;/font&gt;&lt;/div&gt;&lt;div style=&quot;text-align: justify;&quot;&gt;&lt;font style=&quot;&quot;&gt;&lt;b style=&quot;&quot;&gt;&lt;font style=&quot;font-size: 11px;&quot;&gt;Interface&lt;/font&gt; &lt;/b&gt;: &lt;font style=&quot;font-size: 11px;&quot;&gt;Files In &lt;/font&gt;&lt;font style=&quot;font-size: 11px;&quot;&gt;&lt;font style=&quot;&quot;&gt;Folder&lt;/font&gt;&lt;font style=&quot;&quot;&gt;s&lt;/font&gt;&lt;/font&gt;&lt;/font&gt;&lt;/div&gt;" style="text;html=1;align=center;verticalAlign=middle;whiteSpace=wrap;rounded=0;fontSize=10;labelBackgroundColor=default;" vertex="1" parent="1">
          <mxGeometry x="45" y="490" width="150" height="90" as="geometry" />
        </mxCell>
        <mxCell id="GoY-4vi9tE2PiTq7zHD_-59" value="Raw Data" style="html=1;verticalLabelPosition=bottom;align=center;labelBackgroundColor=#ffffff;verticalAlign=top;strokeWidth=2;strokeColor=#b46504;shadow=0;dashed=0;shape=mxgraph.ios7.icons.data;fillColor=#fad7ac;" vertex="1" parent="1">
          <mxGeometry x="346.5" y="257.95" width="57" height="82.05" as="geometry" />
        </mxCell>
        <mxCell id="GoY-4vi9tE2PiTq7zHD_-60" value="Cleaned,Standardized data" style="html=1;verticalLabelPosition=bottom;align=center;labelBackgroundColor=#ffffff;verticalAlign=top;strokeWidth=2;strokeColor=#666666;shadow=0;dashed=0;shape=mxgraph.ios7.icons.data;fillColor=#f5f5f5;gradientColor=#b3b3b3;" vertex="1" parent="1">
          <mxGeometry x="571.5" y="257.95" width="57" height="82.05" as="geometry" />
        </mxCell>
        <mxCell id="GoY-4vi9tE2PiTq7zHD_-61" value="Business-Ready Data" style="html=1;verticalLabelPosition=bottom;align=center;labelBackgroundColor=#ffffff;verticalAlign=top;strokeWidth=2;strokeColor=#d6b656;shadow=0;dashed=0;shape=mxgraph.ios7.icons.data;fillColor=#fff2cc;gradientColor=#ffd966;" vertex="1" parent="1">
          <mxGeometry x="796.5" y="257.95" width="57" height="82.05" as="geometry" />
        </mxCell>
        <mxCell id="GoY-4vi9tE2PiTq7zHD_-63" value="" style="html=1;shadow=0;dashed=0;align=center;verticalAlign=middle;shape=mxgraph.arrows2.arrow;dy=0.6;dx=40;notch=0;fillColor=#dae8fc;gradientColor=#7ea6e0;strokeColor=#6c8ebf;strokeWidth=0;" vertex="1" parent="1">
          <mxGeometry x="195" y="340" width="105" height="30" as="geometry" />
        </mxCell>
        <mxCell id="GoY-4vi9tE2PiTq7zHD_-65" value="" style="html=1;shadow=0;dashed=0;align=center;verticalAlign=middle;shape=mxgraph.arrows2.arrow;dy=0.6;dx=40;notch=0;fillColor=#dae8fc;gradientColor=#7ea6e0;strokeColor=#6c8ebf;strokeWidth=0;" vertex="1" parent="1">
          <mxGeometry x="450" y="340" width="80" height="30" as="geometry" />
        </mxCell>
        <mxCell id="GoY-4vi9tE2PiTq7zHD_-69" value="" style="html=1;shadow=0;dashed=0;align=center;verticalAlign=middle;shape=mxgraph.arrows2.arrow;dy=0.6;dx=40;notch=0;fillColor=#dae8fc;gradientColor=#7ea6e0;strokeColor=#6c8ebf;strokeWidth=0;" vertex="1" parent="1">
          <mxGeometry x="675" y="340" width="80" height="30" as="geometry" />
        </mxCell>
        <mxCell id="GoY-4vi9tE2PiTq7zHD_-72" value="" style="html=1;shadow=0;dashed=0;align=center;verticalAlign=middle;shape=mxgraph.arrows2.arrow;dy=0.6;dx=40;notch=0;fillColor=#dae8fc;gradientColor=#7ea6e0;strokeColor=#6c8ebf;strokeWidth=0;" vertex="1" parent="1">
          <mxGeometry x="910" y="340" width="105" height="30" as="geometry" />
        </mxCell>
        <mxCell id="GoY-4vi9tE2PiTq7zHD_-73" value="" style="line;strokeWidth=1;html=1;labelBackgroundColor=default;fillColor=#fad7ac;strokeColor=#b46504;" vertex="1" parent="1">
          <mxGeometry x="310" y="368.12" width="130" height="10" as="geometry" />
        </mxCell>
        <mxCell id="GoY-4vi9tE2PiTq7zHD_-74" value="&lt;div style=&quot;text-align: left;&quot;&gt;&lt;b style=&quot;font-size: 11px; background-color: transparent; color: light-dark(rgb(0, 0, 0), rgb(255, 255, 255));&quot;&gt;Object Type&lt;/b&gt;&lt;span style=&quot;font-size: 11px; background-color: transparent; color: light-dark(rgb(0, 0, 0), rgb(255, 255, 255));&quot;&gt; : Tables&lt;/span&gt;&lt;/div&gt;&lt;div style=&quot;text-align: left;&quot;&gt;&lt;font style=&quot;&quot;&gt;&lt;b style=&quot;&quot;&gt;&lt;span style=&quot;font-size: 11px;&quot;&gt;&amp;nbsp;Load &lt;/span&gt;&lt;font style=&quot;font-size: 12px;&quot;&gt;:&lt;/font&gt;&lt;/b&gt;&lt;/font&gt;&lt;/div&gt;&lt;div&gt;&lt;ul&gt;&lt;li style=&quot;text-align: left;&quot;&gt;&lt;font style=&quot;font-size: 11px;&quot;&gt;Batch Processing&lt;/font&gt;&lt;/li&gt;&lt;li style=&quot;text-align: left;&quot;&gt;&lt;font style=&quot;font-size: 11px;&quot;&gt;Full Load&lt;/font&gt;&lt;/li&gt;&lt;li style=&quot;text-align: left;&quot;&gt;&lt;font style=&quot;font-size: 11px;&quot;&gt;Truncate &amp;amp; Insert&lt;/font&gt;&lt;/li&gt;&lt;/ul&gt;&lt;div style=&quot;text-align: left;&quot;&gt;&lt;span style=&quot;font-size: 11px;&quot;&gt;No &lt;b&gt;Transformations&lt;/b&gt;&lt;/span&gt;&lt;/div&gt;&lt;/div&gt;&lt;div&gt;&lt;span style=&quot;font-size: 11px;&quot;&gt;&lt;b&gt;Data Model : &lt;/b&gt;None(as-is)&lt;/span&gt;&lt;/div&gt;" style="text;html=1;align=center;verticalAlign=middle;whiteSpace=wrap;rounded=0;" vertex="1" parent="1">
          <mxGeometry x="310" y="362.06" width="130" height="175.94" as="geometry" />
        </mxCell>
        <mxCell id="GoY-4vi9tE2PiTq7zHD_-75" value="&lt;font style=&quot;font-size: 9px;&quot;&gt;Stored Procedure&lt;/font&gt;" style="text;html=1;align=left;verticalAlign=middle;whiteSpace=wrap;rounded=0;" vertex="1" parent="1">
          <mxGeometry x="340" y="200" width="90" height="30" as="geometry" />
        </mxCell>
        <mxCell id="GoY-4vi9tE2PiTq7zHD_-76" value="" style="image;aspect=fixed;html=1;points=[];align=center;fontSize=12;image=img/lib/azure2/general/Code.svg;" vertex="1" parent="1">
          <mxGeometry x="363.27000000000004" y="230" width="23.46" height="19.07" as="geometry" />
        </mxCell>
        <mxCell id="GoY-4vi9tE2PiTq7zHD_-79" value="" style="image;aspect=fixed;html=1;points=[];align=center;fontSize=12;image=img/lib/azure2/power_platform/PowerBI.svg;" vertex="1" parent="1">
          <mxGeometry x="1041" y="197.87" width="62.5" height="83.33" as="geometry" />
        </mxCell>
        <mxCell id="GoY-4vi9tE2PiTq7zHD_-80" value="" style="verticalLabelPosition=bottom;sketch=0;aspect=fixed;html=1;verticalAlign=top;strokeColor=none;align=center;outlineConnect=0;shape=mxgraph.citrix.reporting;" vertex="1" parent="1">
          <mxGeometry x="1082.88" y="257.95" width="35.65" height="40" as="geometry" />
        </mxCell>
        <mxCell id="GoY-4vi9tE2PiTq7zHD_-81" value="&lt;font&gt;BI &amp;amp; Reporting&lt;/font&gt;" style="text;html=1;align=center;verticalAlign=middle;whiteSpace=wrap;rounded=0;" vertex="1" parent="1">
          <mxGeometry x="1030" y="297.95" width="100" height="30" as="geometry" />
        </mxCell>
        <mxCell id="GoY-4vi9tE2PiTq7zHD_-85" value="Ad -Hoc&lt;div&gt;Reports&lt;/div&gt;" style="sketch=0;points=[[0,0,0],[0.25,0,0],[0.5,0,0],[0.75,0,0],[1,0,0],[0,1,0],[0.25,1,0],[0.5,1,0],[0.75,1,0],[1,1,0],[0,0.25,0],[0,0.5,0],[0,0.75,0],[1,0.25,0],[1,0.5,0],[1,0.75,0]];outlineConnect=0;fontColor=#232F3E;fillColor=#7AA116;strokeColor=#ffffff;dashed=0;verticalLabelPosition=bottom;verticalAlign=top;align=center;html=1;fontSize=12;fontStyle=0;aspect=fixed;shape=mxgraph.aws4.resourceIcon;resIcon=mxgraph.aws4.cost_and_usage_report;" vertex="1" parent="1">
          <mxGeometry x="1054.53" y="370" width="50.94" height="50.94" as="geometry" />
        </mxCell>
        <mxCell id="GoY-4vi9tE2PiTq7zHD_-90" value="Data Analysis" style="image;aspect=fixed;html=1;points=[];align=center;fontSize=12;image=img/lib/azure2/analytics/Analysis_Services.svg;" vertex="1" parent="1">
          <mxGeometry x="1048.5" y="490" width="63" height="48" as="geometry" />
        </mxCell>
        <mxCell id="GoY-4vi9tE2PiTq7zHD_-93" value="&lt;font style=&quot;font-size: 9px;&quot;&gt;Stored Procedure&lt;/font&gt;" style="text;html=1;align=left;verticalAlign=middle;whiteSpace=wrap;rounded=0;" vertex="1" parent="1">
          <mxGeometry x="570" y="200" width="90" height="30" as="geometry" />
        </mxCell>
        <mxCell id="GoY-4vi9tE2PiTq7zHD_-95" value="" style="image;aspect=fixed;html=1;points=[];align=center;fontSize=12;image=img/lib/azure2/general/Code.svg;" vertex="1" parent="1">
          <mxGeometry x="588" y="230" width="23.46" height="19.07" as="geometry" />
        </mxCell>
        <mxCell id="GoY-4vi9tE2PiTq7zHD_-99" value="" style="line;strokeWidth=1;html=1;labelBackgroundColor=default;fillColor=#f5f5f5;strokeColor=#666666;gradientColor=#b3b3b3;" vertex="1" parent="1">
          <mxGeometry x="534.73" y="370" width="130" height="10" as="geometry" />
        </mxCell>
        <mxCell id="GoY-4vi9tE2PiTq7zHD_-100" value="" style="line;strokeWidth=1;html=1;labelBackgroundColor=default;fillColor=#fff2cc;strokeColor=#d6b656;gradientColor=#ffd966;" vertex="1" parent="1">
          <mxGeometry x="760" y="368.12" width="130" height="10" as="geometry" />
        </mxCell>
        <mxCell id="GoY-4vi9tE2PiTq7zHD_-105" value="&lt;div style=&quot;text-align: justify;&quot;&gt;&lt;b style=&quot;font-size: 11px; background-color: transparent; color: light-dark(rgb(0, 0, 0), rgb(255, 255, 255));&quot;&gt;Object Type&lt;/b&gt;&lt;span style=&quot;font-size: 11px; background-color: transparent; color: light-dark(rgb(0, 0, 0), rgb(255, 255, 255));&quot;&gt; : Tables&lt;/span&gt;&lt;/div&gt;&lt;div style=&quot;text-align: justify;&quot;&gt;&lt;font style=&quot;&quot;&gt;&lt;b style=&quot;&quot;&gt;&lt;span style=&quot;font-size: 11px;&quot;&gt;&amp;nbsp;Load &lt;/span&gt;&lt;font style=&quot;font-size: 12px;&quot;&gt;:&lt;/font&gt;&lt;/b&gt;&lt;/font&gt;&lt;/div&gt;&lt;div&gt;&lt;ul&gt;&lt;li style=&quot;text-align: justify;&quot;&gt;&lt;font style=&quot;font-size: 11px;&quot;&gt;Batch Processing&lt;/font&gt;&lt;/li&gt;&lt;li style=&quot;text-align: justify;&quot;&gt;&lt;font style=&quot;font-size: 11px;&quot;&gt;Full Load&lt;/font&gt;&lt;/li&gt;&lt;li style=&quot;text-align: justify;&quot;&gt;&lt;font style=&quot;font-size: 11px;&quot;&gt;Truncate &amp;amp; Insert&lt;/font&gt;&lt;/li&gt;&lt;/ul&gt;&lt;div style=&quot;text-align: justify;&quot;&gt;&lt;span style=&quot;font-size: 11px;&quot;&gt;&lt;b&gt;Transformations&lt;/b&gt;&lt;/span&gt;&lt;/div&gt;&lt;/div&gt;&lt;div style=&quot;&quot;&gt;&lt;ul&gt;&lt;li style=&quot;text-align: justify;&quot;&gt;&lt;font style=&quot;font-size: 11px;&quot;&gt;Data Cleansing&lt;/font&gt;&lt;/li&gt;&lt;li style=&quot;text-align: justify;&quot;&gt;&lt;font style=&quot;font-size: 11px;&quot;&gt;Data&amp;nbsp;standardization&lt;/font&gt;&lt;/li&gt;&lt;li style=&quot;text-align: justify;&quot;&gt;&lt;font style=&quot;&quot;&gt;&lt;span style=&quot;font-size: 11px;&quot;&gt;Data &lt;/span&gt;&lt;font style=&quot;font-size: 11px;&quot;&gt;Normalization&lt;/font&gt;&lt;/font&gt;&lt;/li&gt;&lt;li style=&quot;text-align: justify;&quot;&gt;&lt;font style=&quot;font-size: 11px;&quot;&gt;Derived Columns&lt;/font&gt;&lt;/li&gt;&lt;li style=&quot;text-align: justify;&quot;&gt;&lt;font style=&quot;font-size: 11px;&quot;&gt;Data Enrichment&lt;/font&gt;&lt;/li&gt;&lt;/ul&gt;&lt;/div&gt;&lt;div style=&quot;text-align: justify;&quot;&gt;&lt;span style=&quot;font-size: 11px;&quot;&gt;&lt;b&gt;Data Model : &lt;/b&gt;None(as-is)&lt;/span&gt;&lt;/div&gt;" style="text;html=1;align=left;verticalAlign=middle;whiteSpace=wrap;rounded=0;" vertex="1" parent="1">
          <mxGeometry x="529.73" y="437.01" width="135" height="127.05" as="geometry" />
        </mxCell>
        <mxCell id="GoY-4vi9tE2PiTq7zHD_-106" value="&lt;div style=&quot;text-align: left;&quot;&gt;&lt;b style=&quot;font-size: 11px; background-color: transparent; color: light-dark(rgb(0, 0, 0), rgb(255, 255, 255));&quot;&gt;Object Type&lt;/b&gt;&lt;span style=&quot;font-size: 11px; background-color: transparent; color: light-dark(rgb(0, 0, 0), rgb(255, 255, 255));&quot;&gt; : Views&lt;/span&gt;&lt;/div&gt;&lt;div style=&quot;text-align: left;&quot;&gt;&lt;font style=&quot;&quot;&gt;&lt;span style=&quot;font-size: 11px;&quot;&gt;&lt;b&gt;&amp;nbsp;&lt;/b&gt;No&lt;b&gt; Load&amp;nbsp;&lt;/b&gt;&lt;/span&gt;&lt;/font&gt;&lt;/div&gt;&lt;div style=&quot;text-align: left;&quot;&gt;&lt;b style=&quot;font-size: 11px; background-color: transparent; color: light-dark(rgb(0, 0, 0), rgb(255, 255, 255));&quot;&gt;&lt;br&gt;&lt;/b&gt;&lt;/div&gt;&lt;div style=&quot;text-align: left;&quot;&gt;&lt;b style=&quot;font-size: 11px; background-color: transparent; color: light-dark(rgb(0, 0, 0), rgb(255, 255, 255));&quot;&gt;Transformations:&lt;/b&gt;&lt;/div&gt;&lt;div style=&quot;text-align: left;&quot;&gt;&lt;ul&gt;&lt;li&gt;&lt;span style=&quot;font-size: 11px; background-color: transparent; color: light-dark(rgb(0, 0, 0), rgb(255, 255, 255));&quot;&gt;Data Integrations&lt;/span&gt;&lt;/li&gt;&lt;li&gt;&lt;span style=&quot;font-size: 11px; background-color: transparent; color: light-dark(rgb(0, 0, 0), rgb(255, 255, 255));&quot;&gt;Aggregations&lt;/span&gt;&lt;/li&gt;&lt;li&gt;&lt;span style=&quot;font-size: 11px; background-color: transparent; color: light-dark(rgb(0, 0, 0), rgb(255, 255, 255));&quot;&gt;Business Logics&lt;/span&gt;&lt;/li&gt;&lt;/ul&gt;&lt;/div&gt;&lt;div style=&quot;text-align: left;&quot;&gt;&lt;span style=&quot;font-size: 11px;&quot;&gt;&lt;b&gt;Data Model :&amp;nbsp;&lt;/b&gt;&lt;/span&gt;&lt;/div&gt;&lt;div&gt;&lt;ul&gt;&lt;li&gt;&lt;font style=&quot;font-size: 11px;&quot;&gt;Star Schema&lt;/font&gt;&lt;/li&gt;&lt;li&gt;&lt;font style=&quot;font-size: 11px;&quot;&gt;Flat table&lt;/font&gt;&lt;/li&gt;&lt;li&gt;&lt;font style=&quot;font-size: 11px;&quot;&gt;Aggregated table&lt;/font&gt;&lt;/li&gt;&lt;/ul&gt;&lt;/div&gt;" style="text;html=1;align=center;verticalAlign=middle;whiteSpace=wrap;rounded=0;" vertex="1" parent="1">
          <mxGeometry x="760" y="407.05" width="130" height="175.94" as="geometry" />
        </mxCell>
        <mxCell id="GoY-4vi9tE2PiTq7zHD_-111" value="SQL&lt;span style=&quot;background-color: transparent; color: light-dark(rgb(0, 0, 0), rgb(255, 255, 255));&quot;&gt;&amp;nbsp;Server&lt;/span&gt;&lt;div&gt;&lt;div&gt;&lt;br&gt;&lt;/div&gt;&lt;/div&gt;" style="sketch=0;pointerEvents=1;shadow=0;dashed=0;html=1;strokeColor=none;fillColor=#005F4B;labelPosition=center;verticalLabelPosition=bottom;verticalAlign=top;align=center;outlineConnect=0;shape=mxgraph.veeam2.sql_server;" vertex="1" parent="1">
          <mxGeometry x="260" y="67" width="40" height="52" as="geometry" />
        </mxCell>
      </root>
    </mxGraphModel>
  </diagram>
</mxfile>
